<svg xmlns="http://www.w3.org/2000/svg" version="1.1" xmlns:xlink="http://www.w3.org/1999/xlink" xmlns:svgjs="http://svgjs.dev/svgjs" width="1440" height="560" preserveAspectRatio="none" viewBox="0 0 1440 560"><g mask="url(&quot;#SvgjsMask1014&quot;)" fill="none"><path d="M0 0L201.02 0L0 118.29z" fill="rgba(255, 255, 255, .1)"></path><path d="M0 118.29L201.02 0L284.75 0L0 307.62z" fill="rgba(255, 255, 255, .075)"></path><path d="M0 307.62L284.75 0L474.16999999999996 0L0 375.04z" fill="rgba(255, 255, 255, .05)"></path><path d="M0 375.04L474.16999999999996 0L938.64 0L0 423.8z" fill="rgba(255, 255, 255, .025)"></path><path d="M1440 560L1049.19 560L1440 437.6z" fill="rgba(0, 0, 0, .1)"></path><path d="M1440 437.6L1049.19 560L695.58 560L1440 428.91z" fill="rgba(0, 0, 0, .075)"></path><path d="M1440 428.90999999999997L695.5799999999999 560L570.3 560L1440 203.08999999999997z" fill="rgba(0, 0, 0, .05)"></path><path d="M1440 203.09000000000003L570.3 560L403.3299999999999 560L1440 168.81000000000003z" fill="rgba(0, 0, 0, .025)"></path></g><defs><mask id="SvgjsMask1014"><rect width="1440" height="560" fill="#ffffff"></rect></mask></defs></svg>