<svg xmlns="http://www.w3.org/2000/svg" xmlns:xlink="http://www.w3.org/1999/xlink" version="1.1" id="Layer_1" x="0px" y="0px" width="100%" viewBox="0 0 704 724" enable-background="new 0 0 704 724" xml:space="preserve">
<path fill="#191818" opacity="1.000000" stroke="none" d=" M1.000002,153.000000   C1.000000,125.644028 1.000000,98.288055 1.371193,70.780205   C2.175673,67.124146 2.575933,63.615505 3.048572,60.116642   C4.353741,50.454708 5.579883,40.780281 7.042691,31.141968   C8.570446,21.075722 10.337537,11.045800 12.000000,1.000000   C242.929565,1.000000 473.859131,1.000000 705.000000,1.000000   C705.000000,241.689255 705.000000,482.378571 704.531372,723.533936   C698.255920,723.999146 692.446167,723.885681 686.643677,724.041992   C683.422791,724.128662 680.214172,724.665833 677.000000,725.000000   C667.977356,725.000000 658.954773,725.000000 649.777954,724.622742   C648.775940,723.831055 647.945557,723.096985 647.077942,723.049988   C633.410950,722.309814 619.738647,721.668701 606.068787,720.981201   C599.981873,720.675110 593.871582,720.564880 587.817322,719.931885   C573.372253,718.421692 558.951599,716.675354 544.526001,714.982544   C533.356079,713.671814 522.118774,712.735840 511.046112,710.844543   C496.079712,708.288208 481.239777,704.989075 466.350189,701.985779   C446.280914,697.937683 426.716492,692.085693 408.174835,683.457520   C390.103363,675.048096 373.541473,664.073608 361.020294,648.254944   C354.960571,640.599365 349.156799,632.335693 345.257904,623.459656   C337.139648,604.978210 330.354797,585.910339 323.044189,567.074829   C315.055054,546.491211 301.398834,530.765442 282.682587,519.148071   C274.196960,513.880920 265.273285,508.868927 258.031433,502.144043   C243.703232,488.838837 236.200638,471.286133 233.264267,452.312469   C231.011322,437.754822 230.971313,422.854736 229.963882,407.632141   C229.987091,395.363129 230.024872,383.568726 229.962799,371.774841   C229.954437,370.184570 229.443665,368.596893 229.083221,366.591064   C228.005341,359.954346 227.290085,353.673767 225.955933,347.527527   C223.162918,334.660431 216.832932,324.391968 204.739914,317.872681   C186.804245,308.203644 167.077728,304.210144 147.725616,299.041626   C128.030701,293.781555 108.326469,288.577209 89.686981,280.167969   C69.408463,271.019318 50.929119,259.377930 36.402439,242.012207   C26.766645,230.493195 19.064610,218.057526 13.922351,203.913681   C8.147123,188.028870 4.474098,171.740677 2.931812,154.930756   C2.867882,154.233963 1.669737,153.641220 1.000002,153.000000  z"/>
<path fill="#0a0a0b" opacity="1.000000" stroke="none" d=" M1.000002,153.468658   C1.669737,153.641220 2.867882,154.233963 2.931812,154.930756   C4.474098,171.740677 8.147123,188.028870 13.922351,203.913681   C19.064610,218.057526 26.766645,230.493195 36.402439,242.012207   C50.929119,259.377930 69.408463,271.019318 89.686981,280.167969   C108.326469,288.577209 128.030701,293.781555 147.725616,299.041626   C167.077728,304.210144 186.804245,308.203644 204.739914,317.872681   C216.832932,324.391968 223.162918,334.660431 225.955933,347.527527   C227.290085,353.673767 228.005341,359.954346 229.006226,367.053589   C229.008224,379.824646 228.971573,391.716370 229.043503,403.607422   C229.052567,405.109009 229.631958,406.607178 229.947113,408.106934   C230.971313,422.854736 231.011322,437.754822 233.264267,452.312469   C236.200638,471.286133 243.703232,488.838837 258.031433,502.144043   C265.273285,508.868927 274.196960,513.880920 282.682587,519.148071   C301.398834,530.765442 315.055054,546.491211 323.044189,567.074829   C330.354797,585.910339 337.139648,604.978210 345.257904,623.459656   C349.156799,632.335693 354.960571,640.599365 361.020294,648.254944   C373.541473,664.073608 390.103363,675.048096 408.174835,683.457520   C426.716492,692.085693 446.280914,697.937683 466.350189,701.985779   C481.239777,704.989075 496.079712,708.288208 511.046112,710.844543   C522.118774,712.735840 533.356079,713.671814 544.526001,714.982544   C558.951599,716.675354 573.372253,718.421692 587.817322,719.931885   C593.871582,720.564880 599.981873,720.675110 606.068787,720.981201   C619.738647,721.668701 633.410950,722.309814 647.077942,723.049988   C647.945557,723.096985 648.775940,723.831055 649.311890,724.622742   C433.077454,725.000000 217.154907,725.000000 1.000000,725.000000   C1.000000,534.645813 1.000000,344.291565 1.000002,153.468658  z"/>
<path fill="#0a0a0b" opacity="1.000000" stroke="none" d=" M11.517044,1.000000   C10.337537,11.045800 8.570446,21.075722 7.042691,31.141968   C5.579883,40.780281 4.353741,50.454708 3.048572,60.116642   C2.575933,63.615505 2.175673,67.124146 1.371193,70.314163   C1.000000,46.999962 1.000000,23.999926 1.000000,1.000000   C4.406507,1.000000 7.720297,1.000000 11.517044,1.000000  z"/>
<path fill="#0a0a0b" opacity="1.000000" stroke="none" d=" M677.468628,725.000000   C680.214172,724.665833 683.422791,724.128662 686.643677,724.041992   C692.446167,723.885681 698.255920,723.999146 704.531372,724.000000   C704.348694,724.333313 703.699585,724.951721 703.045654,724.956848   C694.676636,725.022339 686.306885,725.000000 677.468628,725.000000  z"/>
<path fill="#0a0a0b" opacity="1.000000" stroke="none" d=" M229.963882,407.632141   C229.631958,406.607178 229.052567,405.109009 229.043503,403.607422   C228.971573,391.716370 229.008224,379.824646 229.088516,367.470581   C229.443665,368.596893 229.954437,370.184570 229.962799,371.774841   C230.024872,383.568726 229.987091,395.363129 229.963882,407.632141  z"/>
</svg>