<svg xmlns="http://www.w3.org/2000/svg" xmlns:xlink="http://www.w3.org/1999/xlink" viewBox="0 0 500 500"><defs><clipPath id="freepik--clip-path--inject-1--inject-270"><path d="M57.78,408.82c2.87-9.72,32.6-110.76,32.5-111.52s2.43-14.33,8.35-25.64,14.14-23.91,15.17-25.45a22.09,22.09,0,0,0,3.08-8.23c.77-4.11,9-15.43,11.57-18.51s10.28-19.28,10.8-21.85,3.59-4.63,7.71-5.4,9.77-1.54,9.77-1.54a7.66,7.66,0,0,1,1.8,4.37c0,2.31-9.26,57.58-9.77,66.84s.77,14.39-3.34,23.91-16.2,15.42-22.11,19.28-5.46,4.66-5.46,4.66,3.34,92.53,3.26,99.8" style="fill:#fff;stroke:#2e353a;stroke-linecap:round;stroke-linejoin:round"></path></clipPath><clipPath id="freepik--clip-path-2--inject-1--inject-270"><path d="M423.24,402.2s-23.75-43.8-27.13-51.48-5.93-19.78-6.76-23.1a22.32,22.32,0,0,1-.32-12c1.25-5.6.51-21.58,1.07-25.25s-1.71-15.15-3-21.58-4.21-11-8.15-11.5a7,7,0,0,0-6.16,2.41s-1.64-13.69-3.23-16.53-6.77-2.43-9.54-1.75-4.1,9.54-4.1,9.54-2.4-8.51-2.47-12.31-4.69-7.07-8.29-6.17-5.54,2.55-6.52,10.43.87,20.07.87,20.07l-1.87.76s-6.74-23.6-8.88-29.83-4.2-13.36-5.64-18-3.58-12-9.47-10.87-4.44,14-4.44,14,9.21,39.44,9.69,42.55,2,13.91,1.7,17.51-.29,13-.29,13l-8.77-10.46a45,45,0,0,0-4.07-8.1c-3-4.84-9.67-9.35-14-8s-.91,5.81.88,8.3,3.24,9.48,3.24,13,3,6,6.62,12.46S326,328.08,328.75,332.1a25.11,25.11,0,0,0,7.53,6.65s10.5,9.15,15.4,20.57,19.93,44.21,19.93,44.21" style="fill:#fff;stroke:#2e353a;stroke-linecap:round;stroke-linejoin:round"></path></clipPath><clipPath id="freepik--clip-path-3--inject-1--inject-270"><path d="M136.93,257.77s8.49-1.54,13.11-7.19,15.68-12.86,19.28-14.14,9.26-1.55,11.32.25,3.08,6.17,0,11.32S165,258,162.38,260.34s-4.88,3.86-8,10.8a54.43,54.43,0,0,1-12.85,17.74c-4.89,4.37-13.88,11.83-18.51,14.65" style="fill:#fff;stroke:#2e353a;stroke-linecap:round;stroke-linejoin:round"></path></clipPath></defs><!--Select--><g id="freepik--background-simple--inject-1--inject-270"><path d="M423.88,284.81c23.72-37.14,34.2-92.44,12-132.72C415.32,114.94,371,97,330.17,96c-35.32-.86-63.36,9.59-90.92,30.11-14.21,10.59-28.57,21.92-45.68,28.09-13.36,4.82-27.1,8.14-40.88,11.82-49.83,13.33-80.54,58.54-73.85,107.15C84,310.53,113,345.28,150,359.16c28.69,10.76,58.84,2.81,86.56-6.59,14.94-5.07,30-10.31,45.77-12.67,15.25-2.29,30,.57,45.1-1.08C364.64,334.76,403,317.54,423.88,284.81Z" style="fill:#8B5CF6"></path><path d="M423.88,284.81c23.72-37.14,34.2-92.44,12-132.72C415.32,114.94,371,97,330.17,96c-35.32-.86-63.36,9.59-90.92,30.11-14.21,10.59-28.57,21.92-45.68,28.09-13.36,4.82-27.1,8.14-40.88,11.82-49.83,13.33-80.54,58.54-73.85,107.15C84,310.53,113,345.28,150,359.16c28.69,10.76,58.84,2.81,86.56-6.59,14.94-5.07,30-10.31,45.77-12.67,15.25-2.29,30,.57,45.1-1.08C364.64,334.76,403,317.54,423.88,284.81Z" style="fill:#fff;opacity:0.7000000000000001"></path></g><g id="freepik--Desk--inject-1--inject-270"><polygon points="435.65 302.99 431.42 302.99 239.94 302.99 235.71 302.99 235.71 311.47 239.94 311.47 239.94 397.66 431.42 397.66 431.42 311.47 435.65 311.47 435.65 302.99" style="fill:#8B5CF6"></polygon><polygon points="435.65 302.99 431.42 302.99 239.94 302.99 235.71 302.99 235.71 311.47 239.94 311.47 239.94 397.66 431.42 397.66 431.42 311.47 435.65 311.47 435.65 302.99" style="fill:#fff;opacity:0.5"></polygon><path d="M245.07,348h52.22V320.12H245.07Zm1.06-26.85h50.1V347h-50.1Z" style="fill:#fff"></path><path d="M309.92,348h52.23V320.12H309.92ZM311,321.18h50.11V347H311Z" style="fill:#fff"></path><path d="M374.78,320.12V348H427V320.12ZM425.94,347h-50.1V321.18h50.1Z" style="fill:#fff"></path><path d="M245.07,385.48h52.22V357.57H245.07Zm1.06-26.85h50.1v25.79h-50.1Z" style="fill:#fff"></path><path d="M309.92,385.48h52.23V357.57H309.92ZM311,358.63h50.11v25.79H311Z" style="fill:#fff"></path><path d="M374.78,385.48H427V357.57H374.78Zm1.06-26.85h50.1v25.79h-50.1Z" style="fill:#fff"></path><ellipse cx="271.74" cy="334.43" rx="8.48" ry="3.18" style="fill:#fff"></ellipse><ellipse cx="336.28" cy="334.43" rx="8.48" ry="3.18" style="fill:#fff"></ellipse><ellipse cx="402.69" cy="334.43" rx="8.48" ry="3.18" style="fill:#fff"></ellipse><path d="M271.74,368.7c-4.68,0-8.48,1.42-8.48,3.18s3.8,3.17,8.48,3.17,8.48-1.42,8.48-3.17S276.42,368.7,271.74,368.7Z" style="fill:#fff"></path><path d="M336.28,368.7c-4.68,0-8.48,1.42-8.48,3.18s3.8,3.17,8.48,3.17,8.48-1.42,8.48-3.17S341,368.7,336.28,368.7Z" style="fill:#fff"></path><path d="M402.69,368.7c-4.68,0-8.47,1.42-8.47,3.18s3.79,3.17,8.47,3.17,8.48-1.42,8.48-3.17S407.38,368.7,402.69,368.7Z" style="fill:#fff"></path></g><g id="freepik--Frames--inject-1--inject-270"><path d="M113.55,107.26v101.4h77V107.26Zm71.66,94.33H118.93V114.34h66.28Z" style="fill:#8B5CF6"></path><path d="M113.55,107.26v101.4h77V107.26Zm71.66,94.33H118.93V114.34h66.28Z" style="fill:#fff;opacity:0.5"></path><path d="M383,156.73v74.88h56.88V156.73Zm52.91,69.65H387V162h48.94Z" style="fill:#8B5CF6"></path><path d="M383,156.73v74.88h56.88V156.73Zm52.91,69.65H387V162h48.94Z" style="fill:#fff;opacity:0.5"></path></g><g id="freepik--Device--inject-1--inject-270"><path d="M57.78,408.82c2.87-9.72,32.6-110.76,32.5-111.52s2.43-14.33,8.35-25.64,14.14-23.91,15.17-25.45a22.09,22.09,0,0,0,3.08-8.23c.77-4.11,9-15.43,11.57-18.51s10.28-19.28,10.8-21.85,3.59-4.63,7.71-5.4,9.77-1.54,9.77-1.54a7.66,7.66,0,0,1,1.8,4.37c0,2.31-9.26,57.58-9.77,66.84s.77,14.39-3.34,23.91-16.2,15.42-22.11,19.28-5.46,4.66-5.46,4.66,3.34,92.53,3.26,99.8" style="fill:#fff"></path><g style="clip-path:url(#freepik--clip-path--inject-1--inject-270)"><path d="M162.29,251.31c-1.07-4.79-8-2.13-8-2.13a46.47,46.47,0,0,1-17,11.69A206.17,206.17,0,0,0,106,275.82c1.14-2.29,2.38-4.6,3.72-7,6.91-12.22,19.13-28.69,26-30.82,4.24-1.3,8.47,1.39,11.11,3.67l.3-49.5-.17,0c-4.12.77-7.2,2.83-7.71,5.4s-8.23,18.76-10.8,21.85-10.8,14.4-11.57,18.51a22.09,22.09,0,0,1-3.08,8.23c-1,1.54-9.26,14.13-15.17,25.45s-8.45,24.87-8.35,25.64c.07.56-11.37,42-18.64,68.08,6-11.8,15.33-30.89,21-45,2.23-.22,6.55-6.26,10.13-11.18,4.25-5.84,10.62-7.44,23.38-17s27.09-22.85,29.22-28.16S163.35,256.09,162.29,251.31Z" style="fill:#8B5CF6;opacity:0.7000000000000001;mix-blend-mode:multiply"></path></g><path d="M57.78,408.82c2.87-9.72,32.6-110.76,32.5-111.52s2.43-14.33,8.35-25.64,14.14-23.91,15.17-25.45a22.09,22.09,0,0,0,3.08-8.23c.77-4.11,9-15.43,11.57-18.51s10.28-19.28,10.8-21.85,3.59-4.63,7.71-5.4,9.77-1.54,9.77-1.54a7.66,7.66,0,0,1,1.8,4.37c0,2.31-9.26,57.58-9.77,66.84s.77,14.39-3.34,23.91-16.2,15.42-22.11,19.28-5.46,4.66-5.46,4.66,3.34,92.53,3.26,99.8" style="fill:none;stroke:#2e353a;stroke-linecap:round;stroke-linejoin:round"></path><path d="M146.44,253.66s-2.82-.26-5.65-5.4" style="fill:none;stroke:#2e353a;stroke-linecap:round;stroke-linejoin:round"></path><path d="M143.36,220.5s8,1.54,9,8.22" style="fill:none;stroke:#2e353a;stroke-linecap:round;stroke-linejoin:round"></path><path d="M145.93,199.67A15.76,15.76,0,0,1,152.1,211" style="fill:none;stroke:#2e353a;stroke-linecap:round;stroke-linejoin:round"></path><path d="M405.15,253.68l-.63-106.77a11.74,11.74,0,0,0-11.74-11.73H159.13a11.73,11.73,0,0,0-11.73,11.73l-.64,106.77a11.84,11.84,0,0,0,11.85,11.85H393.3A11.84,11.84,0,0,0,405.15,253.68Z" style="fill:#2e353a;stroke:#363636;stroke-linecap:round;stroke-linejoin:round;stroke-width:0.868674px"></path><polygon points="392.02 259.73 391.51 140.92 160.4 140.92 159.9 259.73 392.02 259.73" style="fill:#fff;stroke:#363636;stroke-linecap:round;stroke-linejoin:round;stroke-width:0.651505px"></polygon><polygon points="391.51 140.92 160.4 140.92 160.38 146.85 182.58 146.85 188.26 154.97 391.57 154.97 391.51 140.92" style="fill:#8B5CF6;stroke:#2e353a;stroke-linecap:round;stroke-linejoin:round"></polygon><polygon points="391.51 164.56 229.06 259.73 392.02 259.73 391.51 164.56" style="fill:#8B5CF6;opacity:0.5;mix-blend-mode:multiply"></polygon><circle cx="397.99" cy="200.28" r="1.79" transform="translate(192.57 595.64) rotate(-89.26)" style="fill:#fff"></circle><circle cx="178.2" cy="174.76" r="9.57" style="fill:#8B5CF6;stroke:#2e353a;stroke-linecap:round;stroke-linejoin:round"></circle><circle cx="178.2" cy="214.11" r="9.57" style="fill:#fff;stroke:#2e353a;stroke-linecap:round;stroke-linejoin:round"></circle><circle cx="243.6" cy="174.76" r="9.57" style="fill:#fff;stroke:#2e353a;stroke-linecap:round;stroke-linejoin:round"></circle><circle cx="243.6" cy="214.11" r="9.57" style="fill:#8B5CF6;stroke:#2e353a;stroke-linecap:round;stroke-linejoin:round"></circle><circle cx="309.01" cy="174.76" r="9.57" style="fill:#8B5CF6;stroke:#2e353a;stroke-linecap:round;stroke-linejoin:round"></circle><circle cx="309.01" cy="214.11" r="9.57" style="fill:#8B5CF6;stroke:#2e353a;stroke-linecap:round;stroke-linejoin:round;stroke-width:2px"></circle><circle cx="374.41" cy="174.76" r="9.57" style="fill:#8B5CF6;stroke:#2e353a;stroke-linecap:round;stroke-linejoin:round"></circle><circle cx="374.41" cy="214.11" r="9.57" style="fill:#fff;stroke:#2e353a;stroke-linecap:round;stroke-linejoin:round"></circle><line x1="194.83" y1="187.72" x2="226.18" y2="187.72" style="fill:none;stroke:#2e353a;stroke-linecap:round;stroke-linejoin:round"></line><line x1="194.83" y1="194.95" x2="226.18" y2="194.95" style="fill:none;stroke:#2e353a;stroke-linecap:round;stroke-linejoin:round"></line><line x1="194.83" y1="202.19" x2="226.18" y2="202.19" style="fill:none;stroke:#2e353a;stroke-linecap:round;stroke-linejoin:round"></line><line x1="259.34" y1="187.72" x2="290.69" y2="187.72" style="fill:none;stroke:#2e353a;stroke-linecap:round;stroke-linejoin:round"></line><line x1="259.34" y1="194.95" x2="290.69" y2="194.95" style="fill:none;stroke:#2e353a;stroke-linecap:round;stroke-linejoin:round"></line><line x1="259.34" y1="202.19" x2="290.69" y2="202.19" style="fill:none;stroke:#2e353a;stroke-linecap:round;stroke-linejoin:round"></line><line x1="328.07" y1="187.72" x2="359.42" y2="187.72" style="fill:none;stroke:#2e353a;stroke-linecap:round;stroke-linejoin:round"></line><line x1="328.07" y1="194.95" x2="359.42" y2="194.95" style="fill:none;stroke:#2e353a;stroke-linecap:round;stroke-linejoin:round"></line><line x1="328.07" y1="202.19" x2="359.42" y2="202.19" style="fill:none;stroke:#2e353a;stroke-linecap:round;stroke-linejoin:round"></line><line x1="194.83" y1="228.66" x2="226.18" y2="228.66" style="fill:none;stroke:#2e353a;stroke-linecap:round;stroke-linejoin:round"></line><line x1="194.83" y1="235.9" x2="226.18" y2="235.9" style="fill:none;stroke:#2e353a;stroke-linecap:round;stroke-linejoin:round"></line><line x1="194.83" y1="243.13" x2="226.18" y2="243.13" style="fill:none;stroke:#2e353a;stroke-linecap:round;stroke-linejoin:round"></line><line x1="259.34" y1="228.66" x2="290.69" y2="228.66" style="fill:none;stroke:#2e353a;stroke-linecap:round;stroke-linejoin:round"></line><line x1="259.34" y1="235.9" x2="290.69" y2="235.9" style="fill:none;stroke:#2e353a;stroke-linecap:round;stroke-linejoin:round"></line><line x1="259.34" y1="243.13" x2="290.69" y2="243.13" style="fill:none;stroke:#2e353a;stroke-linecap:round;stroke-linejoin:round"></line><line x1="328.07" y1="228.66" x2="359.42" y2="228.66" style="fill:none;stroke:#2e353a;stroke-linecap:round;stroke-linejoin:round"></line><line x1="328.07" y1="235.9" x2="359.42" y2="235.9" style="fill:none;stroke:#2e353a;stroke-linecap:round;stroke-linejoin:round"></line><line x1="328.07" y1="243.13" x2="359.42" y2="243.13" style="fill:none;stroke:#2e353a;stroke-linecap:round;stroke-linejoin:round"></line><line x1="290.13" y1="214.6" x2="296.07" y2="214.6" style="fill:#fff;stroke:#2e353a;stroke-linecap:round;stroke-linejoin:round"></line><line x1="309.64" y1="202.73" x2="309.64" y2="195.31" style="fill:#fff;stroke:#2e353a;stroke-linecap:round;stroke-linejoin:round"></line><line x1="296.49" y1="203.58" x2="300.31" y2="206.55" style="fill:#fff;stroke:#2e353a;stroke-linecap:round;stroke-linejoin:round"></line><line x1="301.16" y1="222.23" x2="296.49" y2="224.78" style="fill:#fff;stroke:#2e353a;stroke-linecap:round;stroke-linejoin:round"></line><line x1="329.57" y1="214.6" x2="323.63" y2="214.6" style="fill:#fff;stroke:#2e353a;stroke-linecap:round;stroke-linejoin:round"></line><line x1="323.2" y1="203.58" x2="319.39" y2="206.55" style="fill:#fff;stroke:#2e353a;stroke-linecap:round;stroke-linejoin:round"></line><line x1="305.02" y1="234.26" x2="310.02" y2="252.12" style="fill:none;stroke:#2e353a;stroke-linecap:round;stroke-linejoin:round"></line><line x1="300.01" y1="232.11" x2="302.87" y2="241.4" style="fill:none;stroke:#2e353a;stroke-linecap:round;stroke-linejoin:round"></line><path d="M423.24,402.2s-23.75-43.8-27.13-51.48-5.93-19.78-6.76-23.1a22.32,22.32,0,0,1-.32-12c1.25-5.6.51-21.58,1.07-25.25s-1.71-15.15-3-21.58-4.21-11-8.15-11.5a7,7,0,0,0-6.16,2.41s-1.64-13.69-3.23-16.53-6.77-2.43-9.54-1.75-4.1,9.54-4.1,9.54-2.4-8.51-2.47-12.31-4.69-7.07-8.29-6.17-5.54,2.55-6.52,10.43.87,20.07.87,20.07l-1.87.76s-6.74-23.6-8.88-29.83-4.2-13.36-5.64-18-3.58-12-9.47-10.87-4.44,14-4.44,14,9.21,39.44,9.69,42.55,2,13.91,1.7,17.51-.29,13-.29,13l-8.77-10.46a45,45,0,0,0-4.07-8.1c-3-4.84-9.67-9.35-14-8s-.91,5.81.88,8.3,3.24,9.48,3.24,13,3,6,6.62,12.46S326,328.08,328.75,332.1a25.11,25.11,0,0,0,7.53,6.65s10.5,9.15,15.4,20.57,19.93,44.21,19.93,44.21" style="fill:#fff"></path><g style="clip-path:url(#freepik--clip-path-2--inject-1--inject-270)"><path d="M387.28,391.78c4.91-4.5,6.13-40.85,5.51-54.38,0-.11,0-.24,0-.36-1.75-4.52-3.11-8.19-3.42-9.42a22.32,22.32,0,0,1-.32-12c1.25-5.6.51-21.58,1.07-25.25.33-2.17-.34-7.11-1.2-12.11-3.56-.31-10.08,2.9-10.08,2.9s-5.14-7.48-8.49-7.74-9.16,5-9.16,5-3.33-11.22-10.17-10.07-8.76,0-11.46.12-4.89-6.45-7.59-12.9S325.4,225,323.11,220c0,0-3.59-10.06-8.24-6.71s-.28,14.3,1.9,20.87,3.35,19.05,5.12,25c2,6.63,1,16.48,2.83,23.7s6.53,9.56,3.94,19-8.25,6.43-14.56.88-9.43-18.26-13-17a16,16,0,0,0-3.56,1.37c.08,3.46,3,6,6.62,12.32S326,328.08,328.75,332.1a25.11,25.11,0,0,0,7.53,6.65s10.5,9.15,15.4,20.57c.88,2.05,2.28,5.08,4,8.68,2,1.6-2.24-6-1.2-4.74C361.41,371.39,382.38,396.29,387.28,391.78Z" style="fill:#8B5CF6;opacity:0.7000000000000001;mix-blend-mode:multiply"></path></g><path d="M423.24,402.2s-23.75-43.8-27.13-51.48-5.93-19.78-6.76-23.1a22.32,22.32,0,0,1-.32-12c1.25-5.6.51-21.58,1.07-25.25s-1.71-15.15-3-21.58-4.21-11-8.15-11.5a7,7,0,0,0-6.16,2.41s-1.64-13.69-3.23-16.53-6.77-2.43-9.54-1.75-4.1,9.54-4.1,9.54-2.4-8.51-2.47-12.31-4.69-7.07-8.29-6.17-5.54,2.55-6.52,10.43.87,20.07.87,20.07l-1.87.76s-6.74-23.6-8.88-29.83-4.2-13.36-5.64-18-3.58-12-9.47-10.87-4.44,14-4.44,14,9.21,39.44,9.69,42.55,2,13.91,1.7,17.51-.29,13-.29,13l-8.77-10.46a45,45,0,0,0-4.07-8.1c-3-4.84-9.67-9.35-14-8s-.91,5.81.88,8.3,3.24,9.48,3.24,13,3,6,6.62,12.46S326,328.08,328.75,332.1a25.11,25.11,0,0,0,7.53,6.65s10.5,9.15,15.4,20.57,19.93,44.21,19.93,44.21" style="fill:none;stroke:#2e353a;stroke-linecap:round;stroke-linejoin:round"></path><path d="M310.53,207.9s1.09,6.76,1.3,7.61c.47,1.91,8.37,1,9-.47.56-1.31.15-4.15.15-4.15" style="fill:none;stroke:#2e353a;stroke-linecap:round;stroke-linejoin:round"></path><path d="M297,274.15a4.08,4.08,0,0,0,.49-5.12c-1.86-2.77-2.9-3.39-2.9-3.39" style="fill:none;stroke:#2e353a;stroke-linecap:round;stroke-linejoin:round"></path><path d="M319.67,247.07s3.53,1.18,6.85-3.17" style="fill:none;stroke:#2e353a;stroke-linecap:round;stroke-linejoin:round;stroke-width:0.75px"></path><path d="M320.09,244s4.71-3.53,8.31-3.24" style="fill:none;stroke:#2e353a;stroke-linecap:round;stroke-linejoin:round;stroke-width:0.75px"></path><path d="M315.21,225.55s3.53-3.52,6.36-2.76" style="fill:none;stroke:#2e353a;stroke-linecap:round;stroke-linejoin:round;stroke-width:0.75px"></path><path d="M318.53,224.72a10.35,10.35,0,0,0,4.36-.2" style="fill:none;stroke:#2e353a;stroke-linecap:round;stroke-linejoin:round;stroke-width:0.75px"></path><line x1="355.91" y1="250.99" x2="357.77" y2="262" style="fill:none;stroke:#2e353a;stroke-linecap:round;stroke-linejoin:round"></line><line x1="372.78" y1="259.73" x2="374.77" y2="271.29" style="fill:none;stroke:#2e353a;stroke-linecap:round;stroke-linejoin:round"></line><path d="M320.3,292.17s-.5,8.65.33,12" style="fill:none;stroke:#2e353a;stroke-linecap:round;stroke-linejoin:round"></path><path d="M357.78,267.86s2.05,5.43,1.55,9" style="fill:none;stroke:#2e353a;stroke-linecap:round;stroke-linejoin:round;stroke-width:0.75px"></path><path d="M374.55,273.47s1.39,2.8.56,7.9" style="fill:none;stroke:#2e353a;stroke-linecap:round;stroke-linejoin:round;stroke-width:0.75px"></path><path d="M136.93,257.77s8.49-1.54,13.11-7.19,15.68-12.86,19.28-14.14,9.26-1.55,11.32.25,3.08,6.17,0,11.32S165,258,162.38,260.34s-4.88,3.86-8,10.8a54.43,54.43,0,0,1-12.85,17.74c-4.89,4.37-13.88,11.83-18.51,14.65" style="fill:#fff"></path><g style="clip-path:url(#freepik--clip-path-3--inject-1--inject-270)"><path d="M162.29,251.31c-1.07-4.79-8-2.13-8-2.13a46.47,46.47,0,0,1-17,11.69A206.17,206.17,0,0,0,106,275.82c1.14-2.29,2.38-4.6,3.72-7,6.91-12.22,19.13-28.69,26-30.82,4.24-1.3,8.47,1.39,11.11,3.67l.3-49.5-.17,0c-4.12.77-7.2,2.83-7.71,5.4s-8.23,18.76-10.8,21.85-10.8,14.4-11.57,18.51a22.09,22.09,0,0,1-3.08,8.23c-1,1.54-9.26,14.13-15.17,25.45s-8.45,24.87-8.35,25.64c.07.56-11.37,42-18.64,68.08,6-11.8,15.33-30.89,21-45,2.23-.22,6.55-6.26,10.13-11.18,4.25-5.84,10.62-7.44,23.38-17s27.09-22.85,29.22-28.16S163.35,256.09,162.29,251.31Z" style="fill:#8B5CF6;opacity:0.7000000000000001;mix-blend-mode:multiply"></path></g><path d="M136.93,257.77s8.49-1.54,13.11-7.19,15.68-12.86,19.28-14.14,9.26-1.55,11.32.25,3.08,6.17,0,11.32S165,258,162.38,260.34s-4.88,3.86-8,10.8a54.43,54.43,0,0,1-12.85,17.74c-4.89,4.37-13.88,11.83-18.51,14.65" style="fill:none;stroke:#2e353a;stroke-linecap:round;stroke-linejoin:round"></path><path d="M180.89,246c-1.54,2.31-5.4,2.57-5.4,2.57s-1.54-3.34-2.57-5.4a9.16,9.16,0,0,0-3.34-3.34s1.29-3.34,3.86-3.34" style="fill:none;stroke:#2e353a;stroke-linecap:round;stroke-linejoin:round"></path><path d="M80.25,309.92a110,110,0,0,1,28.9-2.35c16.41.79,20.31,10.16,20.31,10.16l-.78,21.09s-8.59-6.25-26.56-8.59-27.34-.78-27.34-.78Z" style="fill:#fff;stroke:#2e353a;stroke-linecap:round;stroke-linejoin:round"></path><path d="M129.62,408.33l4.23-67.69c-27.34-16.41-59.07-11.19-59.07-11.19l-27,78.88Z" style="fill:#2e353a;stroke:#2e353a;stroke-linecap:round;stroke-linejoin:round"></path><path d="M343,356.33s2.67-10.66,17.33-19.33S397,331.67,397,331.67l3.33,8.66s-18-.66-31.33,6.67-20,16-20,16Z" style="fill:#fff;stroke:#2e353a;stroke-linecap:round;stroke-linejoin:round"></path><path d="M442.25,408.33l-39.56-70.72s-15-3.94-33,3.39-25.34,21.33-25.34,21.33l7.57,46Z" style="fill:#2e353a;stroke:#2e353a;stroke-linecap:round;stroke-linejoin:round"></path><path d="M352.94,364.47c.5,2.15-.1,4.13-1.36,4.42s-2.68-1.21-3.18-3.36.1-4.13,1.35-4.42S352.43,362.32,352.94,364.47Z" style="fill:#fff"></path></g></svg>