<svg xmlns="http://www.w3.org/2000/svg" xmlns:xlink="http://www.w3.org/1999/xlink" viewBox="0,0,255.99431,255.99431" width="50px" height="50px"><g fill="#fbdd47" fill-rule="nonzero" stroke="none" stroke-width="1" stroke-linecap="butt" stroke-linejoin="miter" stroke-miterlimit="10" stroke-dasharray="" stroke-dashoffset="0" font-family="none" font-weight="none" font-size="none" text-anchor="none" style="mix-blend-mode: normal"><g transform="scale(5.12,5.12)"><path d="M25,2c-12.69047,0 -23,10.30953 -23,23c-0.0051,0.36064 0.18438,0.69608 0.49587,0.87789c0.3115,0.18181 0.69676,0.18181 1.00825,0c0.3115,-0.18181 0.50097,-0.51725 0.49587,-0.87789c0,-11.60953 9.39047,-21 21,-21c7.14036,0 13.42792,3.56276 17.22266,9h-4.22266c-0.36064,-0.0051 -0.69608,0.18438 -0.87789,0.49587c-0.18181,0.3115 -0.18181,0.69676 0,1.00825c0.18181,0.3115 0.51725,0.50097 0.87789,0.49587h8v-8c0.0037,-0.2703 -0.10218,-0.53059 -0.29351,-0.72155c-0.19133,-0.19097 -0.45182,-0.29634 -0.72212,-0.29212c-0.55152,0.00862 -0.99193,0.46214 -0.98437,1.01367v5.05273c-4.14086,-6.06637 -11.10844,-10.05273 -19,-10.05273zM25,6c-10.493,0 -19,8.507 -19,19c0,2.862 0.6502,5.566 1.7832,8h4.2168c1.657,0 3,1.343 3,3c0,1.657 -1.343,3 -3,3h0.1875c3.38,3.095 7.8685,5 12.8125,5c10.493,0 19,-8.507 19,-19c0,-2.862 -0.6502,-5.566 -1.7832,-8h-4.2168c-1.657,0 -3,-1.343 -3,-3c0,-1.599 1.25503,-2.89342 2.83203,-2.98242c-3.382,-3.106 -7.87803,-5.01758 -12.83203,-5.01758zM25,10c0.553,0 1,0.447 1,1v2.04688c4.716,0.443 6,4.00913 6,5.95313c0,0.553 -0.447,1 -1,1c-0.551,0 -0.997,-0.44414 -1,-0.99414c-0.006,-0.416 -0.196,-4.00586 -5,-4.00586c-4.809,0 -4.995,3.59781 -5,4.00781c0,0.855 0.00006,3.14486 5.16406,4.00586c7.969,1.328 7.87184,5.46712 7.83984,6.82813l-0.00391,0.1582c0,0.067 -0.102,6.37636 -7,6.94336v2.05664c0,0.553 -0.447,1 -1,1c-0.553,0 -1,-0.447 -1,-1v-2.05273c-5.502,-0.523 -7,-5.33327 -7,-7.94727c0,-0.553 0.447,-1 1,-1c0.553,0 1,0.447 1,1c0.004,0.611 0.205,6 6,6c5.932,0 6,-4.796 6,-5l0.00391,-0.20508c0.024,-1.03 0.08903,-3.76559 -6.16797,-4.80859c-4.536,-0.756 -6.83594,-2.76933 -6.83594,-5.98633c0,-1.944 1.284,-5.51112 6,-5.95312v-2.04687c0,-0.553 0.447,-1 1,-1zM46.98438,23.98633c-0.55152,0.00862 -0.99193,0.46214 -0.98437,1.01367c0,11.60953 -9.39047,21 -21,21c-7.14036,0 -13.42792,-3.56276 -17.22266,-9h4.22266c0.36064,0.0051 0.69608,-0.18438 0.87789,-0.49587c0.18181,-0.3115 0.18181,-0.69676 0,-1.00825c-0.18181,-0.3115 -0.51725,-0.50097 -0.87789,-0.49587h-8v8c-0.0051,0.36064 0.18438,0.69608 0.49587,0.87789c0.3115,0.18181 0.69676,0.18181 1.00825,0c0.3115,-0.18181 0.50097,-0.51725 0.49587,-0.87789v-5.05273c4.14086,6.06637 11.10844,10.05273 19,10.05273c12.69047,0 23,-10.30953 23,-23c0.0037,-0.2703 -0.10218,-0.53059 -0.29351,-0.72155c-0.19133,-0.19097 -0.45182,-0.29634 -0.72212,-0.29212z"></path></g></g></svg>