<svg xmlns="http://www.w3.org/2000/svg" viewBox="0 0 500 500"><g id="freepik--background-simple--inject-151"><path d="M475.08,285.76c-15.05,40.32-45.82,84-89.11,96.89-65.41,19.53-73.22,72.26-190.38,67.37a236.3,236.3,0,0,1-50.66-7.43,196.74,196.74,0,0,1-23.82-7.92C52.67,407,17,345.93,14,282.09c-3.91-84,54.67-124,92.74-147.42s84-114.23,199.18-110.33A228.5,228.5,0,0,1,358,32c38.77,10.49,78.18,33.7,101.08,67.62q2.58,3.83,4.93,7.82C494.64,159.38,495.61,230.78,475.08,285.76Z" style="fill:#8B5CF6"></path><path d="M475.08,285.76c-15.05,40.32-45.82,84-89.11,96.89-65.41,19.53-73.22,72.26-190.38,67.37a236.3,236.3,0,0,1-50.66-7.43,196.74,196.74,0,0,1-23.82-7.92C52.67,407,17,345.93,14,282.09c-3.91-84,54.67-124,92.74-147.42s84-114.23,199.18-110.33A228.5,228.5,0,0,1,358,32c38.77,10.49,78.18,33.7,101.08,67.62q2.58,3.83,4.93,7.82C494.64,159.38,495.61,230.78,475.08,285.76Z" style="fill:#fff;opacity:0.7000000000000001"></path></g><g id="freepik--money-icons--inject-151"><path d="M72.2,185.73V172.44h23v13.29c19.94,4.09,30.16,19.43,30.16,43.71v5.63H98.78v-7.41c0-12.79-5.11-17.64-14.06-17.64s-14.06,4.85-14.06,17.64c0,36.81,55,38.6,55,89.73,0,24.28-10.48,39.88-30.42,44v13h-23v-13c-20.2-4.09-30.42-19.69-30.42-44V305.12H68.36v14.06c0,12.78,5.63,17.38,14.58,17.38s14.57-4.6,14.57-17.38c0-36.82-55-38.61-55-89.74C42.54,205.41,52.51,190.07,72.2,185.73Z" style="fill:none;stroke:#263238;stroke-miterlimit:10"></path><path d="M421.19,137.48v-5.42h9.39v5.42c8.14,1.67,12.32,7.93,12.32,17.84v2.3H432v-3c0-5.21-2.08-7.2-5.73-7.2s-5.74,2-5.74,7.2c0,15,22.43,15.76,22.43,36.63,0,9.91-4.28,16.28-12.42,17.95v5.32h-9.39v-5.32c-8.24-1.67-12.41-8-12.41-17.95v-5h10.85V192c0,5.22,2.29,7.09,5.95,7.09s5.94-1.87,5.94-7.09c0-15-22.43-15.76-22.43-36.63C409.09,145.52,413.16,139.26,421.19,137.48Z" style="fill:none;stroke:#263238;stroke-miterlimit:10"></path><path d="M358,363.09v-3.48h6v3.48c5.22,1.08,7.9,5.09,7.9,11.45V376h-7v-1.95c0-3.34-1.34-4.62-3.68-4.62s-3.68,1.28-3.68,4.62c0,9.65,14.39,10.11,14.39,23.5,0,6.36-2.75,10.45-8,11.52v3.41h-6v-3.41c-5.29-1.07-8-5.16-8-11.52v-3.21h7V398c0,3.35,1.48,4.56,3.82,4.56s3.82-1.21,3.82-4.56c0-9.64-14.4-10.11-14.4-23.5C350.27,368.25,352.88,364.23,358,363.09Z" style="fill:none;stroke:#263238;stroke-miterlimit:10"></path><path d="M242.19,352.48v-5.42h9.39v5.42c8.14,1.67,12.32,7.93,12.32,17.84v2.3H253v-3c0-5.21-2.08-7.2-5.73-7.2s-5.74,2-5.74,7.2c0,15,22.43,15.76,22.43,36.63,0,9.91-4.28,16.28-12.42,17.95v5.32h-9.39v-5.32c-8.24-1.67-12.41-8-12.41-17.95v-5h10.85V407c0,5.22,2.29,7.09,6,7.09s5.94-1.87,5.94-7.09c0-15-22.43-15.76-22.43-36.63C230.09,360.52,234.16,354.26,242.19,352.48Z" style="fill:none;stroke:#263238;stroke-miterlimit:10"></path></g><g id="freepik--Clouds--inject-151"><path d="M467.78,108.4c.89-5,2.16-17.45-5.4-23.55-9.61-7.75-16.43,6.2-24.79-4.65S426.74,45.81,402,46.12,375.3,60.37,375.3,65s-7.43,8-9,8-10.23-4-13.33,5-1,14.19-5.92,14.38-11-6.53-17.74-3.17-6.71,10.48-9.49,13-7.44-1.86-13.64.62c-3.75,1.5-4.89,3.91-5.2,5.58Z" style="fill:#fff;stroke:#263238;stroke-miterlimit:10"></path><path d="M458.66,116.33c.44-2.53,1.09-8.8-2.73-11.88-4.84-3.91-8.28,3.13-12.5-2.34s-5.47-17.35-18-17.19S412,92.1,412,94.45s-3.75,4.06-4.53,4.06-5.16-2-6.72,2.5-.5,7.16-3,7.25-5.57-3.29-8.95-1.6-3.38,5.29-4.78,6.54-3.75-.94-6.88.31a3.83,3.83,0,0,0-2.62,2.82Z" style="fill:#fff;stroke:#263238;stroke-miterlimit:10"></path><path d="M175.67,65c.43-2.41,1-8.4-2.6-11.34-4.62-3.73-7.9,3-11.93-2.24S155.92,34.84,144,35s-12.83,6.87-12.83,9.1S127.57,48,126.83,48s-4.93-1.94-6.42,2.39-.48,6.83-2.85,6.92-5.32-3.14-8.54-1.53-3.23,5-4.57,6.25-3.58-.9-6.57.29A3.66,3.66,0,0,0,95.38,65Z" style="fill:#fff;stroke:#263238;stroke-miterlimit:10"></path><path d="M92.81,121.7c.25-1.42.61-5-1.54-6.69-2.73-2.21-4.67,1.76-7-1.32s-3.08-9.79-10.13-9.7-7.58,4.06-7.58,5.38-2.12,2.29-2.56,2.29-2.9-1.15-3.79,1.41-.28,4-1.68,4.09-3.14-1.86-5-.9-1.91,3-2.7,3.68-2.12-.53-3.88.18a2.15,2.15,0,0,0-1.48,1.58Z" style="fill:#fff;stroke:#263238;stroke-miterlimit:10"></path></g><g id="freepik--Character--inject-151"><path d="M380.72,309.86s6.36-2.24,9.73-2.24a16.11,16.11,0,0,1,6.73,1.87l.37,8.6-4.11,1.5s-.37,3.74,1.12,4.86a7.9,7.9,0,0,1,2.25,3.37c2,6-2.87,14.33-5.77,19.3-4.71,8.07-7.89,9.05-9.37-1.29-.59-4.09-1.21-8.66-.57-12.78a13.84,13.84,0,0,0-1.12-8.23l-1.87-13.09Z" style="fill:#263238;stroke:#263238;stroke-miterlimit:10"></path><path d="M282.73,269.47s17.58,58.35,19.45,64A57.15,57.15,0,0,0,307,343.9l74.81-15.71-1.13-18.33L328,311l3-45.25-49,1.12Z" style="fill:#263238;stroke:#263238;stroke-miterlimit:10"></path><path d="M245.89,218s5.05,7.29,9,10.1,11.78-3.37,11.78-3.37l-14-39.27S246.45,209.63,245.89,218Z" style="fill:#8B5CF6;stroke:#263238;stroke-miterlimit:10"></path><path d="M249.07,185.31l12.34,41.89s.38,4.87,8.23,7.49,47.5,4.48,53.11,3.36,10.47-7.48,8.6-10.47S318.26,198,318.26,198L316,153.9s-14.21-9.73-20.95-10.1-19.07,1.5-20.19,1.5-23.57,4.11-24.31,11.59S249.07,185.31,249.07,185.31Z" style="fill:#fff;stroke:#263238;stroke-miterlimit:10"></path><path d="M267.15,168.81l-6.59,12.41L257,165l2.53-10.38L278,141.2l4.87-.31a13.14,13.14,0,0,1,3.49,5.38c1.27,3.54,1,6.58,1.27,7.6s-5.32,27.86-5.32,27.86Z" style="fill:#fff;stroke:#263238;stroke-miterlimit:10"></path><path d="M262.16,152.4s-9.35,34.41-10.47,45.26-.75,29.54-.75,29.54-9-7.85-10.1-13.46-.37-23.94-1.12-25.81-7.48-7.1-7.48-7.1-23.19,9.35-25.81,11.22-10.47,7.85-16.08,6-11.68-9.72-8.49-18.33c2.27-6.12,23.08-10.84,23.08-10.84l19.82-10.47s11.22-15.34,15.71-17.58S262.16,152.4,262.16,152.4Z" style="fill:#8B5CF6;stroke:#263238;stroke-miterlimit:10"></path><path d="M208,179.07a15.4,15.4,0,0,1,2.14,2.88" style="fill:none;stroke:#263238;stroke-miterlimit:10"></path><path d="M195.21,174.84a15.19,15.19,0,0,1,11.42,2.95" style="fill:none;stroke:#263238;stroke-miterlimit:10"></path><path d="M262.16,152.4s-2.52-2-5.88-4.4l-9.08,15.62,2.62,6-4.49,7.85,5.24,43.39.31.59c0-6.4.08-16.74.81-23.78C252.81,186.81,262.16,152.4,262.16,152.4Z" style="fill:#8B5CF6;stroke:#263238;stroke-miterlimit:10"></path><line x1="225.34" y1="173.64" x2="223.26" y2="171.48" style="fill:none;stroke:#263238;stroke-miterlimit:10"></line><line x1="232.24" y1="180.83" x2="227.6" y2="175.99" style="fill:none;stroke:#263238;stroke-miterlimit:10"></line><path d="M248.11,103.64s-5.46,13-4.94,14.56-2.34,6-2.08,9.37-1.3,19.77-.26,21.07.78,1.56,4.16,1.82,10.4.26,10.4.26l13.27,21.59,13-25.49.78-5.2s7.28-11.19,8.06-14.83,2.08-16.13-.78-20.55-9.62-10.41-19.51-12.75a33.15,33.15,0,0,0-18,.78s2.08-5.46-1.3-3.38S245.77,101.56,248.11,103.64Z" style="fill:#fff;stroke:#263238;stroke-miterlimit:10"></path><path d="M244,115.38s2.05.22,4.39,2.82" style="fill:none;stroke:#263238;stroke-miterlimit:10"></path><polyline points="249.41 120.28 244.47 133.81 249.41 134.33" style="fill:none;stroke:#263238;stroke-miterlimit:10"></polyline><path d="M258.76,123.83c-.18,1.28-.85,2.25-1.49,2.15s-1-1.2-.82-2.48.85-2.24,1.49-2.15S259,122.55,258.76,123.83Z" style="fill:#263238"></path><path d="M246.28,121.73c-.16,1.28-.8,2.26-1.45,2.18s-1-1.18-.87-2.47.8-2.26,1.44-2.18S246.44,120.44,246.28,121.73Z" style="fill:#263238"></path><polygon points="255.39 150.72 268.4 148.38 273.34 142.92 263.46 163.21 255.39 150.72" style="fill:#263238;stroke:#263238;stroke-miterlimit:10"></polygon><path d="M252.91,119.06s5.6-2.42,11.07-.34" style="fill:none;stroke:#263238;stroke-miterlimit:10"></path><line x1="244.99" y1="137.19" x2="250.19" y2="137.71" style="fill:none;stroke:#263238;stroke-miterlimit:10"></line><line x1="255.39" y1="127.57" x2="260.08" y2="127.83" style="fill:none;stroke:#263238;stroke-miterlimit:10"></line><line x1="244.99" y1="125.23" x2="242.91" y2="124.45" style="fill:none;stroke:#263238;stroke-miterlimit:10"></line><path d="M290.51,126.79c.78-3.64,2.08-16.13-.78-20.55s-9.62-10.41-19.51-12.75a33.15,33.15,0,0,0-18,.78s2.08-5.46-1.3-3.38-5.2,10.67-2.86,12.75c0,0,4.42,4.68,6.76,4.68s9.37-1,13-1,5.2,2.34,5.46,3.64-4.68,6-3.9,8.58,4.94,2.87,4.94,2.87-2.6,8.32-.78,8.32,2.34.78,3.12-1.3,4.17-6.24,5.73-4.42,1.3,6.76.52,8.84-5.73,2.6-5.73,3.38,4.17,4.17,4.17,4.17l1.5-.47C284.53,138.35,289.85,129.87,290.51,126.79Z" style="fill:#263238;stroke:#263238;stroke-miterlimit:10"></path><path d="M211.33,188.63s3.67,4.93,4.47,6.21a4.69,4.69,0,0,1,.31,3.5c-.16.64-5.89,3.51-7.48,4.15s-1.44-3.51-.32-4.62,2.07-4.31,2.07-4.31-.8-4.3-.8-5.25S211.33,188.63,211.33,188.63Z" style="fill:#fff;stroke:#263238;stroke-miterlimit:10"></path><path d="M207.93,182.7s-16.08,7.48-16.08,9.72.74,7.11,3,8.6,17.2-3,17.95-5.23S210.17,182.32,207.93,182.7Z" style="fill:#fff;stroke:#263238;stroke-miterlimit:10"></path><path d="M204,185s4.14,7.33,5.09,12.75" style="fill:none;stroke:#263238;stroke-miterlimit:10"></path><path d="M198.91,187.51s4.14,7.49,5.26,12" style="fill:none;stroke:#263238;stroke-miterlimit:10"></path><path d="M194.29,190.06l4.62,10.51" style="fill:none;stroke:#263238;stroke-miterlimit:10"></path><rect x="372.12" y="238.8" width="27.68" height="16.83" transform="translate(-48.21 100.33) rotate(-13.95)" style="fill:none;stroke:#263238;stroke-miterlimit:10;stroke-width:3px"></rect><rect x="346.29" y="248.16" width="92.44" height="60.15" rx="5.99" transform="translate(-52.99 96.55) rotate(-13.14)" style="fill:#a6a6a6;stroke:#263238;stroke-miterlimit:10"></rect><polygon points="379.6 227.58 375.49 239.17 379.6 249.65 386.33 249.27 387.08 246.65 394.94 240.67 391.57 225.34 379.6 227.58" style="fill:#fff;stroke:#263238;stroke-miterlimit:10"></polygon><polygon points="375.11 222.72 378.11 230.2 391.57 225.34 388.95 218.6 375.11 222.72" style="fill:#fff;stroke:#263238;stroke-miterlimit:10"></polygon><rect x="196.54" y="457.04" width="210.65" height="7.06" style="fill:#fff;stroke:#263238;stroke-miterlimit:10"></rect><rect x="325.46" y="305.42" width="5.7" height="156.47" style="fill:#fff;stroke:#263238;stroke-miterlimit:10"></rect><rect x="108.45" y="284.8" width="238.05" height="21.02" style="fill:#fff;stroke:#263238;stroke-miterlimit:10"></rect><rect x="104.12" y="284.8" width="238.05" height="21.02" style="fill:#fff;stroke:#263238;stroke-miterlimit:10"></rect><rect x="190.35" y="284.8" width="13.46" height="21.02" style="fill:#8B5CF6;stroke:#263238;stroke-miterlimit:10"></rect><rect x="134.25" y="284.8" width="13.46" height="21.02" style="fill:#8B5CF6;stroke:#263238;stroke-miterlimit:10"></rect><rect x="246.45" y="284.8" width="13.46" height="21.02" style="fill:#8B5CF6;stroke:#263238;stroke-miterlimit:10"></rect><rect x="302.55" y="284.8" width="13.46" height="21.02" style="fill:#8B5CF6;stroke:#263238;stroke-miterlimit:10"></rect><polygon points="334.21 308.25 322.42 308.25 323.6 292.91 333.03 292.91 334.21 308.25" style="fill:#263238;stroke:#263238;stroke-miterlimit:10"></polygon><rect x="121.36" y="305.42" width="5.7" height="156.47" style="fill:#fff;stroke:#263238;stroke-miterlimit:10"></rect><rect x="120.92" y="457.04" width="210.65" height="7.06" style="fill:#fff;stroke:#263238;stroke-miterlimit:10"></rect><polygon points="130.11 308.25 118.32 308.25 119.5 292.91 128.93 292.91 130.11 308.25" style="fill:#263238;stroke:#263238;stroke-miterlimit:10"></polygon><path d="M189,305.19l-3,4.86s-36.28-7.48-35.91-3.74,16.46,15,22.44,19.07a72.52,72.52,0,0,0,11.22,6.36l-1.12,1.87,9,6s6-5.61,7.85-10.1,1.5-13.84,1.5-13.84Z" style="fill:#263238;stroke:#263238;stroke-miterlimit:10"></path><path d="M332.1,235.81l-20.2-.38s-35.53-7.48-52-10.84-29.55-4.12-31.42-2.25-42.08,84.34-42.08,84.34l16.83,12.72L247,255.07s41,23.75,60,23.75,25.81-4.86,30.67-16.46,1.5-23.56,1.5-23.56Z" style="fill:#263238;stroke:#263238;stroke-miterlimit:10"></path><path d="M285.72,142.3s6,52,8.23,61.72,6,15.7,7.48,16.83,34.79,17.2,34.79,17.2-12-28.8-11.22-30.67.37-29.55.37-29.55L356,182l17.58,43.38,16.83-6-17.27-53.5a12,12,0,0,0-7.33-7.61l-37.49-13.69-8.19-4.92a10,10,0,0,0-6.53-1.32Z" style="fill:#8B5CF6;stroke:#263238;stroke-miterlimit:10"></path><polyline points="313.85 175.67 325.37 177.83 315.27 179.94" style="fill:none;stroke:#263238;stroke-miterlimit:10"></polyline><path d="M319.53,141.59a13.06,13.06,0,0,0-2.13,10.29c1.42,5.69,1.42-3.19,5.33-7.1" style="fill:none;stroke:#263238;stroke-miterlimit:10"></path><path d="M292.08,169.23l9.35-6L294.6,141l-8.88,1.26s6,52,8.23,61.72,6,15.7,7.48,16.83l.75-47.5Z" style="fill:#8B5CF6;stroke:#263238;stroke-miterlimit:10"></path><path d="M304.05,223.09s56.1,3.37,59.47,3.37,1.87,3.74,0,10.47-8.23,14.59-8.23,14.59Z" style="fill:#8B5CF6;stroke:#263238;stroke-miterlimit:10"></path><path d="M341.19,196.56S315,200,305.83,201.48s-23.8-6.08-26.1-8.86a71.45,71.45,0,0,1-5.37-8.36l2.12-7.52-9.33-7.93-3.22,6.07,7.1,9.38s2.31,14.69,13.56,22.54,13.82,9.37,27.89,6.08,32.8-2.39,32.8-2.39l5.37-9.12Z" style="fill:#263238;stroke:#263238;stroke-miterlimit:10"></path></g><g id="freepik--speech-bubble--inject-151"><circle cx="178" cy="109.65" r="36.66" transform="translate(-28.84 79.27) rotate(-23.28)" style="fill:#fff;stroke:#263238;stroke-miterlimit:10"></circle><path d="M175.86,86.59V83.06H182v3.53c5.3,1.09,8,5.17,8,11.62v1.5h-7.07v-2c0-3.4-1.36-4.69-3.74-4.69s-3.73,1.29-3.73,4.69c0,9.78,14.61,10.26,14.61,23.85,0,6.46-2.79,10.6-8.09,11.69v3.47h-6.12v-3.47c-5.37-1.09-8.08-5.23-8.08-11.69v-3.26h7.06v3.74c0,3.39,1.5,4.62,3.88,4.62s3.87-1.23,3.87-4.62c0-9.79-14.61-10.27-14.61-23.86C168,91.82,170.63,87.75,175.86,86.59Z" style="fill:#263238"></path><path d="M224.61,111.69a3.42,3.42,0,1,1-3.39-3.85A3.63,3.63,0,0,1,224.61,111.69Z" style="fill:#fff;stroke:#263238;stroke-miterlimit:10"></path><path d="M232.31,113.5a2.72,2.72,0,1,1-2.72-2.94A2.84,2.84,0,0,1,232.31,113.5Z" style="fill:#fff;stroke:#263238;stroke-miterlimit:10"></path></g><g id="freepik--Floor--inject-151"><line x1="454" y1="464.5" x2="485" y2="464.5" style="fill:none;stroke:#263238;stroke-miterlimit:10"></line><line x1="21" y1="464.5" x2="445" y2="464.5" style="fill:none;stroke:#263238;stroke-miterlimit:10"></line></g></svg>